Coordinates
version=1
nRows=16
nColumns=63
inDegrees=yes

Units are S.I. units (second, meters, Newtons, ...)
If the header above contains a line with 'inDegrees', this indicates whether rotational values are in degrees (yes) or radians (no).

endheader
time	pelvis_tilt	pelvis_list	pelvis_rotation	pelvis_tx	pelvis_ty	pelvis_tz	hip_flexion_r	hip_adduction_r	hip_rotation_r	knee_angle_r	knee_angle_r_beta	ankle_angle_r	subtalar_angle_r	mtp_angle_r	hip_flexion_l	hip_adduction_l	hip_rotation_l	knee_angle_l	knee_angle_l_beta	ankle_angle_l	subtalar_angle_l	mtp_angle_l	L5_S1_Flex_Ext	L5_S1_Lat_Bending	L5_S1_axial_rotation	L4_L5_Flex_Ext	L4_L5_Lat_Bending	L4_L5_axial_rotation	L3_L4_Flex_Ext	L3_L4_Lat_Bending	L3_L4_axial_rotation	L2_L3_Flex_Ext	L2_L3_Lat_Bending	L2_L3_axial_rotation	L1_L2_Flex_Ext	L1_L2_Lat_Bending	L1_L2_axial_rotation	L1_T12_Flex_Ext	L1_T12_Lat_Bending	L1_T12_axial_rotation	Abs_r3	Abs_r2	Abs_r1	Abs_t1	Abs_t2	neck_flexion	neck_bending	neck_rotation	arm_flex_r	arm_add_r	arm_rot_r	elbow_flex_r	pro_sup_r	wrist_flex_r	wrist_dev_r	arm_flex_l	arm_add_l	arm_rot_l	elbow_flex_l	pro_sup_l	wrist_flex_l	wrist_dev_l
2.254237	0.832605	-14.324814	94.372555	0.075560	0.961076	0.481346	14.409299	-1.888843	11.343620	1.422297	0.024824	12.626798	-10.585756	0.000000	14.004171	-1.176195	8.344660	1.616627	0.028215	14.531292	-7.003437	0.000000	0.020727	0.072480	0.398588	0.038492	0.096398	0.423500	0.034052	0.176227	0.423500	0.023689	0.176227	0.348765	0.019247	0.147801	0.323853	0.011843	0.112271	0.298941	0.148049	0.819906	2.216828	0.000000	0.000000	24.441392	-1.368071	9.339354	78.323332	-9.367553	11.862650	98.471822	88.534454	8.452054	-1.239757	64.267820	-11.127752	3.189176	137.821055	89.177394	-12.715715	13.928975
2.271186	0.802382	-14.578958	94.179065	0.075413	0.959476	0.480519	14.878784	-1.883889	12.442571	1.725803	0.030121	13.371901	-11.486611	0.000000	14.280786	-1.128052	7.750312	1.622604	0.028320	15.714461	-6.431947	0.000000	0.032013	0.084780	0.270286	0.059452	0.112757	0.287178	0.052594	0.206133	0.287178	0.036588	0.206133	0.236500	0.029727	0.172883	0.219607	0.018292	0.131324	0.202714	0.228666	0.959045	1.503247	0.000000	0.000000	24.774219	-1.178325	11.262206	80.085214	-8.756792	14.334860	91.760004	87.960190	5.869990	-2.868080	64.962582	-13.738525	6.808742	138.106300	89.255284	-12.525643	14.315341
2.288136	0.725966	-14.890104	93.910670	0.075363	0.957682	0.479969	15.544656	-1.893012	13.215021	2.167886	0.037837	14.480775	-11.877204	0.000000	14.669484	-1.045551	6.895252	1.623782	0.028340	17.106108	-5.465934	0.000000	0.038980	0.091278	0.188770	0.072389	0.121399	0.200568	0.064040	0.221933	0.200568	0.044550	0.221933	0.165173	0.036197	0.186134	0.153375	0.022273	0.141389	0.141577	0.278428	1.032553	1.049880	0.000000	0.000000	25.016042	-1.064530	12.759986	81.889608	-8.429692	16.523272	84.995034	87.100165	3.155279	-4.023675	66.233508	-16.391540	10.684860	136.825433	89.179291	-12.583160	14.196125
2.305085	0.615253	-15.267032	93.614066	0.075399	0.955762	0.479758	16.431170	-1.918023	13.429867	2.747567	0.047954	15.993438	-11.480854	0.000000	15.191523	-0.930859	5.969436	1.612600	0.028145	18.615604	-4.333217	0.000000	0.042018	0.090614	0.154900	0.078032	0.120517	0.164582	0.069032	0.220319	0.164582	0.048023	0.220319	0.135538	0.039018	0.184780	0.125857	0.024009	0.140361	0.116175	0.300133	1.025045	0.861510	0.000000	0.000000	25.186456	-1.021027	13.653253	83.646569	-8.491693	18.283906	78.353073	85.967340	0.402150	-4.759504	68.063031	-18.918302	14.746162	133.980697	89.082991	-12.935720	13.776977
2.322034	0.434201	-15.717428	93.248285	0.075692	0.953765	0.479925	17.557188	-1.958855	13.238424	3.446953	0.060161	17.854917	-10.443921	0.000000	15.861374	-0.776587	4.850905	1.593537	0.027812	20.239599	-2.966516	0.000000	0.041939	0.073902	0.180191	0.077884	0.098290	0.191453	0.068901	0.179686	0.191453	0.047932	0.179686	0.157668	0.038944	0.150702	0.146406	0.023964	0.114475	0.135144	0.299564	0.835997	1.002171	0.000000	0.000000	25.303351	-0.973736	13.749397	85.200737	-9.000009	19.350928	72.153602	84.860184	-2.206956	-4.849424	70.486996	-21.119622	19.026862	129.486574	88.999519	-13.420540	13.015103
2.338983	0.214079	-16.224410	92.856049	0.076126	0.951757	0.480452	18.883132	-2.004365	12.601998	4.229042	0.073811	20.019295	-8.766079	0.000000	16.660723	-0.600322	3.642056	1.569443	0.027392	21.947579	-1.460826	0.000000	0.039151	0.048666	0.245307	0.072708	0.064726	0.260638	0.064322	0.118328	0.260638	0.044746	0.118328	0.214643	0.036356	0.099241	0.199312	0.022371	0.075384	0.183980	0.279654	0.550524	1.364322	0.000000	0.000000	25.378648	-0.998293	13.371971	86.553888	-9.860539	19.766835	66.501442	83.826153	-4.564691	-4.583475	73.353064	-22.967755	23.261906	123.482394	88.983064	-14.066917	12.117341
2.355932	-0.038968	-16.779957	92.459035	0.076682	0.949747	0.481284	20.371543	-2.063010	11.576226	5.056312	0.088249	22.419127	-6.557707	0.000000	17.570935	-0.405733	2.368749	1.541981	0.026913	23.725570	0.153721	0.000000	0.035997	0.014570	0.340948	0.066850	0.019378	0.362257	0.059139	0.035425	0.362257	0.041141	0.035425	0.298330	0.033427	0.029711	0.277020	0.020569	0.022569	0.255711	0.257122	0.164817	1.896251	0.000000	0.000000	25.423777	-1.048189	12.528939	87.624677	-11.090953	19.569052	61.661079	83.003570	-6.747670	-3.899182	76.621525	-24.363228	27.415151	116.016151	88.956901	-14.774168	10.958614
2.372881	-0.318709	-17.366815	92.055220	0.077339	0.947765	0.482357	21.977259	-2.115030	10.384438	5.918202	0.103292	24.976825	-4.077142	0.000000	18.557178	-0.199764	1.039795	1.510932	0.026371	25.524227	1.843694	0.000000	0.033723	-0.026381	0.454889	0.062627	-0.035086	0.483320	0.055403	-0.064142	0.483320	0.038542	-0.064142	0.398028	0.031315	-0.053795	0.369597	0.019269	-0.040863	0.341167	0.240879	-0.298422	2.529957	0.000000	0.000000	25.433631	-1.134352	11.370690	88.396151	-12.623668	18.850271	57.779604	82.409093	-8.674147	-2.907196	80.270230	-25.331493	31.640449	107.282908	88.620553	-15.579725	9.375650
2.389831	-0.590951	-17.958753	91.667908	0.078036	0.945870	0.483602	23.619821	-2.133803	9.363178	6.775640	0.118257	27.502634	-1.847468	0.000000	19.573898	-0.003504	-0.342437	1.472730	0.025704	27.325714	3.623259	0.000000	0.032098	-0.068636	0.581929	0.059609	-0.091286	0.618299	0.052734	-0.166882	0.618299	0.036685	-0.166882	0.509188	0.029806	-0.139963	0.472817	0.018341	-0.106318	0.436447	0.229273	-0.776427	3.236514	0.000000	0.000000	25.390804	-1.313758	9.999697	88.842292	-14.482134	17.739232	55.028977	82.053797	-10.464566	-1.642776	84.171719	-25.878656	35.685248	97.618618	88.197774	-16.515304	7.484556
2.406780	-0.851234	-18.526201	91.307989	0.078777	0.944136	0.484939	25.217029	-2.133784	8.440620	7.591683	0.132500	29.936185	0.231308	0.000000	20.568774	0.181720	-1.718978	1.416882	0.024729	29.049915	5.402757	0.000000	0.030067	-0.111322	0.717697	0.055837	-0.148059	0.762553	0.049396	-0.270670	0.762553	0.034363	-0.270670	0.627985	0.027920	-0.227009	0.583129	0.017180	-0.172439	0.538273	0.214763	-1.259302	3.991615	0.000000	0.000000	25.283472	-1.570964	8.502675	88.903296	-16.629638	16.232867	53.504864	81.935563	-11.979600	-0.220800	88.272199	-26.071775	39.577537	87.434621	87.702016	-17.475877	5.541009
2.423729	-1.170624	-19.050420	90.962403	0.079684	0.942626	0.486271	26.705164	-2.194318	7.398974	8.336678	0.145502	32.279648	2.478531	0.000000	21.504573	0.410900	-3.323855	1.351962	0.023596	30.664944	7.455270	0.000000	0.027514	-0.164937	0.852117	0.051097	-0.219366	0.905374	0.045203	-0.401028	0.905374	0.031446	-0.401028	0.745602	0.025550	-0.336339	0.692345	0.015722	-0.255487	0.639088	0.196533	-1.865799	4.739219	0.000000	0.000000	25.138973	-1.786665	6.886537	88.454418	-18.984130	14.406813	53.254418	82.048661	-13.779873	0.958674	92.597351	-26.070595	43.455672	77.199359	87.123468	-18.407109	3.862583
2.440678	-1.502810	-19.507260	90.639774	0.080725	0.941403	0.487429	27.976352	-2.262541	6.743939	8.934061	0.155929	34.225354	4.125680	0.000000	22.323844	0.642878	-4.989804	1.275702	0.022265	32.097171	9.519902	0.000000	0.023070	-0.222965	0.992593	0.042843	-0.296544	1.054630	0.037901	-0.542117	1.054630	0.026366	-0.542117	0.868519	0.021422	-0.454670	0.806482	0.013182	-0.345373	0.744445	0.164784	-2.522226	5.520504	0.000000	0.000000	24.996469	-1.982838	5.237013	87.424441	-21.523277	12.087534	54.385467	82.386033	-15.331117	2.230448	96.844753	-25.920219	46.849433	67.438124	86.629902	-19.136774	2.572698
2.457627	-1.828855	-19.889455	90.345510	0.081870	0.940482	0.488270	28.960464	-2.335451	6.475724	9.323727	0.162730	35.664086	5.138507	0.000000	22.984649	0.863743	-6.599877	1.184284	0.020670	33.242207	11.363173	0.000000	0.017263	-0.281987	1.130173	0.032059	-0.375043	1.200808	0.028361	-0.685624	1.200808	0.019730	-0.685624	0.988901	0.016030	-0.575029	0.918265	0.009864	-0.436798	0.847629	0.123307	-3.189898	6.285680	0.000000	0.000000	24.911501	-2.174247	3.665303	85.803110	-24.123554	9.247544	56.883368	82.935907	-16.504822	3.661495	100.720466	-25.784423	49.466529	58.688582	86.239408	-19.658577	1.625716
2.474576	-2.131548	-20.193874	90.055642	0.083113	0.939851	0.488689	29.615763	-2.396573	6.579488	9.469337	0.165271	36.513042	5.544197	0.000000	23.457682	1.045976	-8.339804	1.089309	0.019012	34.103499	13.171575	0.000000	0.010956	-0.339525	1.259865	0.020346	-0.451568	1.338607	0.017999	-0.825521	1.338607	0.012521	-0.825521	1.102382	0.010174	-0.692360	1.023640	0.006260	-0.525924	0.944899	0.078256	-3.840776	7.006991	0.000000	0.000000	24.920056	-2.268501	2.314033	83.560018	-26.684399	5.934750	60.671054	83.682188	-17.562320	5.059001	103.978426	-25.789516	51.092074	51.417280	85.942645	-20.101422	0.971124
2.491525	-2.400729	-20.422601	89.775221	0.084397	0.939471	0.488605	29.919528	-2.446210	7.104404	9.359266	0.163350	36.705355	5.241847	0.000000	23.722818	1.190772	-9.825973	0.996041	0.017384	34.555153	14.367256	0.000000	0.006178	-0.392941	1.364982	0.011474	-0.522612	1.450294	0.010151	-0.955398	1.450294	0.007061	-0.955398	1.194360	0.005737	-0.801286	1.109048	0.003530	-0.608666	1.023737	0.044132	-4.445032	7.591623	0.000000	0.000000	25.031715	-2.267931	1.281771	80.787483	-29.028462	2.116109	65.666520	84.611390	-18.090379	6.750570	106.376345	-26.094709	51.459000	46.027542	85.741646	-20.306135	0.635566
2.508475	-2.607105	-20.573693	89.490393	0.085666	0.939296	0.488008	29.877275	-2.453451	8.052922	9.023510	0.157490	36.235704	4.229844	0.000000	23.766907	1.271877	-11.021455	0.913779	0.015948	34.595802	14.892879	0.000000	0.003959	-0.436785	1.442301	0.007353	-0.580924	1.532445	0.006505	-1.061999	1.532445	0.004525	-1.061999	1.262014	0.003677	-0.890692	1.171870	0.002262	-0.676580	1.081726	0.028282	-4.940998	8.021647	0.000000	0.000000	25.234947	-2.162395	0.664576	77.594996	-31.065645	-2.119841	71.686603	85.694029	-18.141341	8.636463	107.771947	-26.782049	50.472924	42.755394	85.604890	-20.382684	0.528366
